<svg width="14" height="11" viewBox="0 0 14 11" fill="none" xmlns="http://www.w3.org/2000/svg">
<path fill-rule="evenodd" clip-rule="evenodd" d="M9.5 3.5H0.5V1.5H9.5V3.5Z" fill="black"/>
<path fill-rule="evenodd" clip-rule="evenodd" d="M13.5 9.5H4.5V7.5H13.5V9.5Z" fill="black"/>
<path d="M14 2.5C14 3.88071 12.8807 5 11.5 5C10.1193 5 9 3.88071 9 2.5C9 1.11929 10.1193 0 11.5 0C12.8807 0 14 1.11929 14 2.5Z" fill="black"/>
<path d="M5 8.5C5 9.88071 3.88071 11 2.5 11C1.11929 11 0 9.88071 0 8.5C0 7.11929 1.11929 6 2.5 6C3.88071 6 5 7.11929 5 8.5Z" fill="black"/>
</svg>
