<svg width="13" height="12" viewBox="0 0 13 12" fill="none" xmlns="http://www.w3.org/2000/svg">
<path fill-rule="evenodd" clip-rule="evenodd" d="M5.58587 0.327803C6.09053 0.545746 6.54486 0.865372 6.92049 1.26673L6.22923 1.91367C5.94251 1.60731 5.59572 1.36334 5.2105 1.19698C4.82529 1.03062 4.40992 0.94545 3.99032 0.946781C3.57072 0.948112 3.15589 1.03592 2.77174 1.20471C2.38759 1.37351 2.04235 1.61968 1.75758 1.92785C1.47281 2.23603 1.25461 2.59959 1.11661 2.99585C0.978613 3.39211 0.923773 3.81256 0.955514 4.23096C0.987255 4.64936 1.1049 5.05673 1.3011 5.42764C1.49729 5.79855 1.76784 6.12503 2.09584 6.38672L2.07926 6.40751L6.83588 11.1641L6.16412 11.8359L1.16412 6.83588L1.17157 6.82843C0.889886 6.54674 0.651254 6.22394 0.464202 5.87033C0.207165 5.38441 0.0530449 4.85072 0.0114613 4.30258C-0.0301223 3.75444 0.0417233 3.20361 0.222514 2.68448C0.403304 2.16534 0.689159 1.68904 1.06224 1.28531C1.43531 0.881577 1.8876 0.559076 2.39088 0.337935C2.89415 0.116795 3.4376 0.0017635 3.98731 2.01181e-05C4.53703 -0.00172326 5.0812 0.109859 5.58587 0.327803Z" fill="black"/>
<path fill-rule="evenodd" clip-rule="evenodd" d="M6.80883 0.292382C6.32191 0.493555 5.87958 0.792539 5.50813 1.17157L6.16421 1.84104C6.44774 1.55172 6.78537 1.3235 7.15704 1.16994C7.52871 1.01639 7.92683 0.940623 8.32776 0.947154C8.72869 0.953685 9.12424 1.04238 9.49091 1.20796C9.85759 1.37355 10.1879 1.61264 10.4622 1.91105C10.7366 2.20946 10.9493 2.56109 11.0879 2.94505C11.2264 3.32901 11.2879 3.73747 11.2687 4.14616C11.2496 4.55485 11.1501 4.95543 10.9762 5.32411C10.8023 5.6928 10.5575 6.02205 10.2565 6.29232L10.2614 6.29803L5.49077 11.165L6.1692 11.83L11.0692 6.83104L11.0591 6.82107C11.3674 6.50484 11.6221 6.13776 11.8122 5.7347C12.04 5.2517 12.1704 4.7269 12.1955 4.19148C12.2207 3.65606 12.1401 3.12094 11.9586 2.61792C11.7771 2.1149 11.4983 1.65424 11.1389 1.2633C10.7795 0.872358 10.3468 0.559119 9.8664 0.34219C9.38602 0.12526 8.86782 0.00906584 8.34257 0.000509645C7.81732 -0.00804655 7.29574 0.0912099 6.80883 0.292382Z" fill="black"/>
</svg>
