<svg width="15" height="14" viewBox="0 0 15 14" fill="none" xmlns="http://www.w3.org/2000/svg">
<path d="M12.2353 6.11765C12.2353 9.49633 9.49633 12.2353 6.11765 12.2353C2.73896 12.2353 0 9.49633 0 6.11765C0 2.73896 2.73896 0 6.11765 0C9.49633 0 12.2353 2.73896 12.2353 6.11765Z" fill="black"/>
<path d="M11.0882 6.11756C11.0882 8.86274 8.86283 11.0881 6.11765 11.0881C3.37247 11.0881 1.14706 8.86274 1.14706 6.11756C1.14706 3.37238 3.37247 1.14697 6.11765 1.14697C8.86283 1.14697 11.0882 3.37238 11.0882 6.11756Z" fill="white"/>
<path fill-rule="evenodd" clip-rule="evenodd" d="M13.2344 13.5301L10.1755 10.4713L11.2362 9.41064L14.295 12.4695L13.2344 13.5301Z" fill="black"/>
</svg>
