<svg width="11" height="13" viewBox="0 0 11 13" fill="none" xmlns="http://www.w3.org/2000/svg">
<circle cx="5.5" cy="3.5" r="3" fill="white" stroke="black"/>
<path d="M1 12C1 10.3431 2.34315 9 4 9H7C8.65685 9 10 10.3431 10 12V13H1V12Z" fill="white"/>
<path d="M0.5 12C0.5 10.067 2.067 8.5 4 8.5H7C8.933 8.5 10.5 10.067 10.5 12H9.5C9.5 10.6193 8.38071 9.5 7 9.5H4C2.61929 9.5 1.5 10.6193 1.5 12H0.5ZM10 13H1H10ZM0.5 13V12C0.5 10.067 2.067 8.5 4 8.5V9.5C2.61929 9.5 1.5 10.6193 1.5 12V13H0.5ZM7 8.5C8.933 8.5 10.5 10.067 10.5 12V13H9.5V12C9.5 10.6193 8.38071 9.5 7 9.5V8.5Z" fill="black"/>
</svg>
